<svg xmlns="http://www.w3.org/2000/svg" xmlns:xlink="http://www.w3.org/1999/xlink" xmlns:inkscape="http://www.inkscape.org/namespaces/inkscape" version="1.1" width="283.465" height="283.465" viewBox="0 0 283.465 283.465">
<defs>
<clipPath id="clip_1">
<path transform="matrix(1,0,0,-1,0,283.465)" d="M0 283.465H283.465V0H0Z"/>
</clipPath>
<clipPath id="clip_2">
<path transform="matrix(1,0,0,-1,0,283.465)" d="M0 283.465H283.465V0H0Z"/>
</clipPath>
</defs>
<g inkscape:groupmode="layer" inkscape:label="Layer 1">
<g clip-path="url(#clip_1)">
<path transform="matrix(1,0,0,-1,21.8706,105.75189)" d="M0 0V.048C0 1.395 1.106 3.126 3.8 5.291 3.896 5.387 3.992 5.387 4.088 5.387 4.28 5.387 4.377 5.291 4.377 5.146 4.377 5.05 4.329 4.906 4.185 4.81 1.731 2.837 .77 1.347 .77 .241 .77-1.443 3.03-2.165 5.819-2.165 9.234-2.165 13.467-1.058 15.391 .77 16.785 2.116 17.362 3.415 17.362 4.713 17.362 10.292 6.878 15.679 6.878 21.306 6.878 22.028 7.022 22.75 7.407 23.471 9.812 28.04 26.26 34.87 31.166 34.87H31.262C34.004 34.821 35.062 33.571 35.062 31.839 35.062 27.847 29.627 21.499 25.827 21.499 24.914 21.499 24.144 21.835 23.519 22.605L23.423 22.845C23.423 23.086 23.663 23.278 23.903 23.278 24 23.278 24.096 23.23 24.192 23.134 24.625 22.605 25.202 22.365 25.827 22.365 29.05 22.365 34.196 28.28 34.196 31.695 34.196 33.042 33.378 34.003 31.262 34.052H31.214C26.645 34.052 10.341 27.318 8.176 23.086 7.888 22.509 7.743 21.932 7.743 21.354 7.743 16.16 18.229 10.677 18.229 4.713 18.229 3.222 17.603 1.683 15.968 .144 13.852-1.875 9.523-3.078 5.868-3.078 2.646-3.078 0-2.116 0 0" fill="#f36d21"/>
<path transform="matrix(1,0,0,-1,50.7739,91.3232)" d="M0 0V.192C.337 1.298 1.491 2.693 2.646 2.693H2.741C2.982 2.693 3.126 2.453 3.126 2.26 3.126 2.068 2.982 1.828 2.693 1.828H2.549C1.876 1.828 .817 .721 .529 .048 .433-.192 .289-.289 .192-.289 .048-.289 0-.192 0 0M-6.445-10.004C-6.733-9.715-6.878-9.283-6.878-8.85-6.878-6.685-3.896-3.319-2.741-2.116-2.646-2.02-2.549-1.972-2.453-1.972-2.212-1.972-1.972-2.212-1.972-2.453-1.972-2.549-2.02-2.645-2.116-2.742-3.126-3.704-6.06-7.167-6.06-8.801-6.06-9.042-5.964-9.283-5.819-9.427-5.627-9.571-5.339-9.667-5.002-9.667-1.684-9.667 8.705-4.04 10.533-2.982 10.677-2.934 10.773-2.886 10.821-2.886 10.918-2.886 11.014-2.934 11.014-2.982L11.11-3.174C11.11-3.271 11.014-3.367 10.87-3.463 10.389-3.799-.77-10.437-5.05-10.437-5.675-10.437-6.156-10.292-6.445-10.004" fill="#f36d21"/>
<path transform="matrix(1,0,0,-1,56.2075,101.3754)" d="M0 0 .097 .241C.818 1.299 4.569 6.638 5.771 7.84 5.82 7.936 5.916 7.984 6.012 7.984 6.253 7.984 6.493 7.744 6.493 7.503 6.493 7.407 6.445 7.311 6.349 7.215 5.724 6.589 3.992 4.232 3.126 3.03 5.483 5.146 8.802 7.695 10.678 7.695H10.87C12.217 7.551 12.313 5.964 12.313 4.425V3.56C12.313 2.549 12.361 1.684 12.842 1.443 12.938 1.347 13.13 1.347 13.371 1.347 15.824 1.347 23.423 6.205 24.722 7.07 24.866 7.167 24.914 7.167 24.962 7.167 25.106 7.167 25.154 7.118 25.25 7.022 25.25 7.022 25.395 6.782 25.106 6.589 23.375 5.435 16.208 .529 13.227 .529 12.89 .529 12.602 .577 12.409 .722 10.678 1.78 12.265 6.686 10.773 6.83H10.581C8.08 6.83 2.261 1.059 .77-.336 .674-.433 .577-.433 .481-.433 .241-.433 0-.24 0 0" fill="#f36d21"/>
<path transform="matrix(1,0,0,-1,76.9839,100.1245)" d="M0 0C0 .24 .048 .48 .096 .77 .817 3.992 5.867 7.695 8.272 7.695 8.513 7.695 8.753 7.647 8.945 7.551 9.33 7.358 9.522 7.07 9.522 6.733 9.522 6.156 9.09 5.435 8.609 4.857 8.513 4.761 8.417 4.713 8.32 4.713 8.08 4.713 7.839 4.954 7.839 5.194L7.936 5.435C8.32 5.867 8.657 6.396 8.657 6.637 8.657 6.685 8.609 6.781 8.561 6.781 8.465 6.829 8.368 6.829 8.224 6.829 6.541 6.829 1.587 3.559 .914 .577L.865 .096C.865-.625 1.442-.962 2.404-.962 6.541-.962 17.892 5.098 18.998 5.819 19.094 5.916 19.19 5.916 19.286 5.916 19.382 5.916 19.431 5.916 19.479 5.819 19.526 5.771 19.575 5.723 19.575 5.675 19.575 5.531 19.479 5.387 19.334 5.338 17.939 4.328 6.926-1.684 2.164-1.684 .865-1.684 0-1.203 0 0" fill="#f36d21"/>
<path transform="matrix(1,0,0,-1,100.501,93.5356)" d="M0 0-.048 .145C-.096 .289-.289 .385-.529 .385-1.443 .385-3.367-.77-3.704-1.058-3.463-1.25-3.078-1.347-2.693-1.347-1.539-1.347 0-.529 0 0M-7.455-6.204C-7.455-5.916-7.407-5.579-7.359-5.194-6.877-2.646-4.713-.433-2.453 .625-1.78 .914-1.058 1.154-.433 1.154 .096 1.154 .529 .962 .721 .481 .818 .337 .818 .192 .818 0 .818-1.154-1.058-2.164-2.693-2.164-3.319-2.164-3.896-2.02-4.329-1.635-5.338-2.597-6.493-4.377-6.493-5.916-6.493-6.733-6.156-7.503-5.338-8.032-4.666-8.465-3.655-8.609-2.405-8.609 5.002-8.609 21.451-2.741 31.792-1.779H31.887C31.984-1.779 32.032-1.828 32.032-1.924 32.032-2.02 31.984-2.068 31.839-2.116 22.942-2.982 6.012-9.427-2.405-9.427-5.483-9.427-7.455-8.561-7.455-6.204" fill="#f36d21"/>
<path transform="matrix(1,0,0,-1,127.0459,91.320697)" d="M0 0C0-.108-.108-.217-.108-.325-.108-.649-.162-.974-.378-1.244-.433-1.244-.433-1.352-.433-1.46-.378-1.839-.487-2.163-.703-2.488-.757-2.596-.757-2.704-.757-2.758-.919-3.299-1.027-3.786-1.135-4.272-1.189-4.651-1.244-4.976-1.352-5.3-1.406-5.57-1.514-5.841-1.568-6.111-1.622-6.381-1.73-6.706-1.785-6.976-1.893-7.354-2.055-7.787-2.055-8.166-2.055-8.544-2.271-8.869-2.217-9.248-2.217-9.572-2.433-9.734-2.542-10.004-2.596-10.059-2.704-10.059-2.758-10.059-2.92-9.95-3.136-9.788-3.136-9.68-3.136-9.302-3.028-8.923-3.083-8.544-3.083-8.004-2.866-7.571-2.812-7.084-2.758-6.76-2.65-6.436-2.542-6.111-2.65-5.949-2.596-5.787-2.487-5.57-2.379-5.354-2.163-5.138-2.325-4.867-2.379-4.813-2.271-4.705-2.271-4.597-2.217-4.326-2.163-4.11-2.109-3.894-2.055-3.624-2-3.407-1.893-3.191-1.568-2.704-1.622-2.163-1.514-1.623-1.514-1.568-1.568-1.515-1.514-1.515-1.135-.865-1.244-.108-.973 .541-.865 .757-.865 1.081-.757 1.298-.703 1.46-.487 1.568-.378 1.676-.108 1.514 .054 1.352 .325 1.135 .378 .757 .108 .433 0 0" fill="#f36d21"/>
<path transform="matrix(1,0,0,-1,134.0767,91.05069)" d="M0 0C-.054 .271-.108 .541-.216 .757-.216 .811-.433 .865-.486 .865-1.082 .757-1.514 .433-1.893 0-2.217-.378-2.434-.865-2.812-1.189-3.082-1.514-3.028-1.947-3.245-2.325-3.353-2.487-3.353-2.704-3.407-2.974V-3.298C-3.353-3.407-3.353-3.569-3.353-3.677-3.19-3.677-3.028-3.677-2.92-3.623-2.379-3.353-2.055-2.812-1.568-2.433-1.352-2.217-1.244-1.947-1.027-1.73-.919-1.568-.757-1.514-.703-1.406-.486-1.135-.433-.757-.054-.541-.054-.541 0-.433 0-.378ZM1.73-1.082C1.73-1.622 1.568-2.217 1.46-2.758 1.352-3.19 1.19-3.623 1.082-4.056 1.027-4.38 .974-4.65 .919-4.921 .757-5.299 .595-5.732 .433-6.111 .379-6.381 .379-6.597 .379-6.868 .325-7.084 .216-7.3 .162-7.517 .108-7.787 0-8.057-.054-8.328-.108-8.598-.216-8.922-.271-9.247-.378-9.68-.433-10.112-.595-10.491-.703-10.707-.703-11.032-1.027-11.085-1.298-11.14-1.46-10.978-1.514-10.815-1.676-10.545-1.622-10.274-1.46-10.004-1.46-9.95-1.406-9.896-1.352-9.788-1.406-9.734-1.46-9.68-1.514-9.572-1.406-9.247-1.352-8.922-1.244-8.598-1.136-8.057-.973-7.517-.865-7.03-.703-6.489-.541-6.002-.378-5.461-.324-5.083-.271-4.705 0-4.434-.162-3.948 .325-3.623 .216-3.136 .162-3.083 .271-2.974 .271-2.92 .433-2.433 .595-1.893 .703-1.406 .649-1.406 .649-1.352 .595-1.352 .433-1.785-.162-1.785-.216-2.325-.216-2.379-.271-2.487-.378-2.542-.649-2.704-.865-2.974-1.027-3.245-1.189-3.461-1.406-3.677-1.676-3.839-1.893-4.056-2.163-4.164-2.379-4.38-2.812-4.759-3.245-4.542-3.677-4.542-4.11-4.488-4.272-4.056-4.326-3.785-4.434-3.569-4.488-3.19-4.326-2.866-4.218-2.596-4.272-2.325-4.218-2.055-4.218-1.947-4.164-1.893-4.164-1.838-3.894-1.406-3.839-.865-3.407-.487-3.353-.378-3.353-.27-3.245-.162-2.92 .216-2.649 .757-2.217 1.028-1.73 1.352-1.352 1.947-.649 1.839-.162 2.217 .054 1.568 .487 1.623 .649 1.352 .919 1.028 .919 .757 .812 .216 1.082 .108 1.406-.108 1.623-.324 1.73-.757 1.73-1.082" fill="#f36d21"/>
<path transform="matrix(1,0,0,-1,145.5967,96.1337)" d="M0 0C-.054 0-.162 .054-.217 .108-.487 .27-.757 .324-1.082 .216-1.298 .108-1.515 .108-1.784 .108-2.055 .054-2.163-.108-2.163-.378-2.163-.433-2.163-.487-2.218-.541-2.487-1.028-2.813-1.514-3.083-2.001-3.137-2.109-3.137-2.271-3.245-2.379-3.57-3.028-3.84-3.786-4.327-4.326-4.381-4.435-4.381-4.542-4.435-4.597-4.435-4.651-4.435-4.759-4.489-4.813-4.759-5.408-5.03-6.002-5.3-6.598-5.246-6.652-5.192-6.76-5.138-6.868-5.354-7.03-5.517-7.138-5.733-7.3-5.841-7.192-6.111-7.138-6.166-7.03-6.219-6.706-6.273-6.381-6.166-6.057-6.003-5.624-5.625-5.3-5.625-4.759-5.625-4.759-5.571-4.705-5.571-4.651-5.408-4.489-5.192-4.272-5.138-4.002-5.084-3.786-4.868-3.624-4.706-3.407-4.706-3.353-4.759-3.245-4.813-3.191-4.273-2.217-3.84-1.244-3.354-.325-3.354-.271-3.354-.271-3.408-.216-3.624-.271-3.894-.271-4.11-.325-4.489-.433-4.813-.595-5.192-.757-5.517-.865-6.057-.595-6.003-.271-6.003-.108-5.841 .054-5.733 .108-5.462 .378-5.138 .324-4.813 .433-4.381 .541-3.948 .757-3.57 .703-2.92 .703-2.65 1.027-2.38 1.514-2.325 1.622-2.271 1.73-2.163 1.893-1.947 2.325-1.73 2.758-1.515 3.298-1.406 3.623-1.189 3.894-.974 4.218-.812 4.596-.595 5.029-.379 5.408-.812 5.354-1.189 5.354-1.515 5.299-2.001 5.191-2.542 5.408-3.029 5.083-3.137 5.029-3.408 5.191-3.57 5.137-3.948 5.083-4.327 4.975-4.706 4.975-5.138 4.921-5.625 4.867-6.057 4.867-6.111 4.867-6.219 4.921-6.273 4.975-6.382 5.137-6.49 5.354-6.598 5.516-6.328 5.786-6.057 5.894-5.679 5.786-5.571 5.786-5.462 5.894-5.3 5.894-4.759 5.948-4.219 5.948-3.732 6.002-3.624 6.002-3.57 6.057-3.516 6.057-3.354 6.111-3.245 6.111-3.083 6.165-2.813 6.165-2.542 6.219-2.218 6.219H-1.947C-1.515 6.273-1.082 6.111-.649 6.273-.487 6.381-.162 6.273 0 6.165 .162 6.057 .324 5.894 .378 5.732 .433 5.408 .378 5.137 .324 4.867 .216 4.434 .054 4.056-.108 3.677-.217 3.515-.379 3.407-.433 3.245-.541 2.758-.812 2.379-1.082 1.947-1.244 1.73-1.244 1.46-1.298 1.189-1.244 1.135-1.082 1.082-1.027 1.135-.649 1.298-.324 1.135 .054 1.082 .162 1.082 .324 .811 .378 .649 .433 .433 .162 0 0 0" fill="#f36d21"/>
<path transform="matrix(1,0,0,-1,152.8975,91.05069)" d="M0 0C-.054 .271-.108 .541-.216 .757-.216 .811-.433 .865-.486 .865-1.081 .757-1.514 .433-1.893 0-2.217-.378-2.434-.865-2.812-1.189-3.082-1.514-3.028-1.947-3.244-2.325-3.353-2.487-3.353-2.704-3.407-2.974V-3.298C-3.353-3.407-3.353-3.569-3.353-3.677-3.19-3.677-3.028-3.677-2.92-3.623-2.379-3.353-2.055-2.812-1.568-2.433-1.352-2.217-1.243-1.947-1.027-1.73-.919-1.568-.757-1.514-.703-1.406-.486-1.135-.433-.757-.054-.541-.054-.541 0-.433 0-.378ZM1.73-1.082C1.73-1.622 1.568-2.217 1.46-2.758 1.353-3.19 1.189-3.623 1.082-4.056 1.027-4.38 .974-4.65 .919-4.921 .757-5.299 .595-5.732 .433-6.111 .379-6.381 .379-6.597 .379-6.868 .324-7.084 .217-7.3 .162-7.517 .108-7.787 0-8.057-.054-8.328-.108-8.598-.216-8.922-.271-9.247-.378-9.68-.433-10.112-.595-10.491-.703-10.707-.703-11.032-1.027-11.085-1.298-11.14-1.46-10.978-1.514-10.815-1.677-10.545-1.622-10.274-1.46-10.004-1.46-9.95-1.406-9.896-1.352-9.788-1.406-9.734-1.46-9.68-1.514-9.572-1.406-9.247-1.352-8.922-1.243-8.598-1.136-8.057-.974-7.517-.865-7.03-.703-6.489-.541-6.002-.378-5.461-.324-5.083-.271-4.705 0-4.434-.162-3.948 .324-3.623 .217-3.136 .162-3.083 .271-2.974 .271-2.92 .433-2.433 .595-1.893 .703-1.406 .649-1.406 .649-1.352 .595-1.352 .433-1.785-.162-1.785-.216-2.325-.216-2.379-.271-2.487-.378-2.542-.648-2.704-.865-2.974-1.027-3.245-1.189-3.461-1.406-3.677-1.677-3.839-1.893-4.056-2.163-4.164-2.379-4.38-2.812-4.759-3.244-4.542-3.677-4.542-4.109-4.488-4.272-4.056-4.326-3.785-4.435-3.569-4.488-3.19-4.326-2.866-4.218-2.596-4.272-2.325-4.218-2.055-4.218-1.947-4.164-1.893-4.164-1.838-3.894-1.406-3.839-.865-3.407-.487-3.353-.378-3.353-.27-3.244-.162-2.92 .216-2.649 .757-2.217 1.028-1.73 1.352-1.352 1.947-.648 1.839-.162 2.217 .054 1.568 .487 1.623 .649 1.352 .919 1.028 .919 .757 .812 .216 1.082 .108 1.406-.108 1.622-.324 1.73-.757 1.73-1.082" fill="#f36d21"/>
<path transform="matrix(1,0,0,-1,39.4189,255.8627)" d="M0 0H.975C1.231 0 1.448 .093 1.625 .278 1.801 .463 1.889 .682 1.889 .933V6.541C1.889 6.798 1.8 7.017 1.62 7.199 1.44 7.382 1.225 7.473 .975 7.473H0ZM3.462 .967C3.462 .26 3.215-.345 2.719-.847 2.223-1.348 1.625-1.599 .923-1.599H-1.616V9.123H.923C1.63 9.123 2.23 8.872 2.723 8.371 3.216 7.869 3.462 7.268 3.462 6.566Z" fill="#f36d21"/>
<path transform="matrix(1,0,0,-1,47.9121,257.4614)" d="M0 0V10.722H4.6V9.098H1.616V6.173H3.796V4.549H1.616V1.625H4.6V0Z" fill="#f36d21"/>
<path transform="matrix(1,0,0,-1,57.2354,257.4614)" d="M0 0V10.722H4.6V9.098H1.616V6.173H3.796V4.549H1.616V1.625H4.6V0Z" fill="#f36d21"/>
<path transform="matrix(1,0,0,-1,70.0723,249.3305)" d="M0 0C0 .279-.084 .505-.252 .676-.42 .847-.644 .933-.923 .933H-1.898V-2.496H-.923C-.667-2.496-.449-2.405-.27-2.223-.09-2.04 0-1.821 0-1.564ZM-.966 2.582C-.18 2.582 .447 2.334 .915 1.839 1.348 1.365 1.564 .762 1.564 .026V-1.53C1.564-2.237 1.318-2.841 .825-3.343 .332-3.845-.265-4.095-.966-4.095H-1.898V-8.131H-3.514V2.582Z" fill="#f36d21"/>
<path transform="matrix(1,0,0,-1,84.5972,249.3305)" d="M0 0C0 .621-.308 .933-.923 .933H-1.898V-2.496H-.923C-.667-2.496-.449-2.405-.27-2.223-.09-2.04 0-1.821 0-1.564ZM-.966 2.582C-.065 2.582 .596 2.334 1.018 1.839 1.388 1.405 1.573 .801 1.573 .026V-1.53C1.573-2.288 1.285-2.93 .709-3.454L1.907-8.131H.159L-.821-4.095H-.966-1.898V-8.131H-3.514V2.582Z" fill="#f36d21"/>
<path transform="matrix(1,0,0,-1,94.6636,249.142)" d="M0 0C0 .257-.089 .475-.269 .654-.449 .834-.667 .923-.923 .923-1.18 .923-1.399 .834-1.582 .654-1.764 .475-1.855 .257-1.855 0V-5.865C-1.855-6.122-1.764-6.34-1.582-6.52-1.399-6.699-1.18-6.789-.923-6.789-.667-6.789-.449-6.699-.269-6.52-.089-6.34 0-6.122 0-5.865ZM-.88 2.53C-.168 2.53 .437 2.28 .937 1.778 1.435 1.276 1.685 .673 1.685-.034V-5.883C1.685-6.595 1.434-7.201 .932-7.699 .431-8.198-.174-8.447-.88-8.447-1.593-8.447-2.197-8.197-2.693-7.695-3.189-7.193-3.437-6.59-3.437-5.883V-.034C-3.437 .678-3.186 1.284-2.685 1.782-2.183 2.281-1.582 2.53-.88 2.53" fill="#f36d21"/>
<path transform="matrix(1,0,0,-1,104.7905,249.142)" d="M0 0C0 .257-.089 .475-.269 .654-.449 .834-.667 .923-.923 .923-1.18 .923-1.399 .834-1.582 .654-1.764 .475-1.855 .257-1.855 0V-5.865C-1.855-6.122-1.764-6.34-1.582-6.52-1.399-6.699-1.18-6.789-.923-6.789-.667-6.789-.449-6.699-.269-6.52-.089-6.34 0-6.122 0-5.865ZM-.88 2.53C-.168 2.53 .437 2.28 .937 1.778 1.435 1.276 1.685 .673 1.685-.034V-5.883C1.685-6.595 1.434-7.201 .932-7.699 .431-8.198-.174-8.447-.88-8.447-1.593-8.447-2.197-8.197-2.693-7.695-3.189-7.193-3.437-6.59-3.437-5.883V-.034C-3.437 .678-3.186 1.284-2.685 1.782-2.183 2.281-1.582 2.53-.88 2.53" fill="#f36d21"/>
<path transform="matrix(1,0,0,-1,112.9165,248.3725)" d="M0 0H-1.719V1.624H3.326V0H1.616V-9.089H0Z" fill="#f36d21"/>
<path transform="matrix(1,0,0,-1,121.1538,257.4614)" d="M0 0V10.722H4.6V9.098H1.616V6.173H3.796V4.549H1.616V1.625H4.6V0Z" fill="#f36d21"/>
<path transform="matrix(1,0,0,-1,132.0923,255.8627)" d="M0 0H.975C1.231 0 1.448 .093 1.625 .278 1.801 .463 1.889 .682 1.889 .933V6.541C1.889 6.798 1.8 7.017 1.62 7.199 1.44 7.382 1.225 7.473 .975 7.473H0ZM3.462 .967C3.462 .26 3.215-.345 2.719-.847 2.223-1.348 1.625-1.599 .923-1.599H-1.616V9.123H.923C1.63 9.123 2.23 8.872 2.723 8.371 3.216 7.869 3.462 7.268 3.462 6.566Z" fill="#f36d21"/>
<path transform="matrix(1,0,0,-1,147.9248,249.2016)" d="M0 0-.598-4.224H.599ZM-.849-5.797-1.241-8.26H-2.924L-1.103 2.453H1.12L2.916-8.26H1.217L.839-5.797Z" fill="#f36d21"/>
<path transform="matrix(1,0,0,-1,158.1289,257.59809)" d="M0 0C-.713 0-1.318 .251-1.817 .752-2.316 1.254-2.565 1.855-2.565 2.557V8.404C-2.565 9.117-2.314 9.723-1.812 10.222-1.312 10.721-.707 10.97 0 10.97 .712 10.97 1.316 10.719 1.812 10.217 2.309 9.716 2.556 9.111 2.556 8.404V7.182H.88V8.438C.88 8.695 .789 8.915 .606 9.098 .424 9.279 .205 9.371-.052 9.371-.309 9.371-.526 9.279-.706 9.098-.886 8.915-.975 8.695-.975 8.438V2.573C-.975 2.317-.886 2.099-.706 1.919-.526 1.74-.309 1.65-.052 1.65 .205 1.65 .424 1.739 .606 1.919 .789 2.098 .88 2.315 .88 2.571V4.677H-.018V6.302H2.556V2.557C2.556 1.844 2.306 1.239 1.804 .744 1.302 .248 .701 0 0 0" fill="#f36d21"/>
<path transform="matrix(1,0,0,-1,169.2129,249.3305)" d="M0 0C0 .621-.308 .933-.923 .933H-1.897V-2.496H-.923C-.666-2.496-.448-2.405-.269-2.223-.089-2.04 0-1.821 0-1.564ZM-.966 2.582C-.065 2.582 .596 2.334 1.018 1.839 1.389 1.405 1.573 .801 1.573 .026V-1.53C1.573-2.288 1.286-2.93 .71-3.454L1.907-8.131H.159L-.82-4.095H-.966-1.897V-8.131H-3.514V2.582Z" fill="#f36d21"/>
<path transform="matrix(1,0,0,-1,0,283.465)" d="M177.732 26.004H176.116V36.717H177.732Z" fill="#f36d21"/>
<path transform="matrix(1,0,0,-1,185.3369,257.59809)" d="M0 0C-.713 0-1.318 .249-1.817 .748-2.316 1.247-2.565 1.85-2.565 2.557V8.404C-2.565 9.117-2.314 9.723-1.812 10.222-1.312 10.721-.707 10.97 0 10.97 .712 10.97 1.316 10.719 1.812 10.217 2.309 9.716 2.556 9.111 2.556 8.404V7.182H.88V8.438C.88 8.695 .789 8.915 .606 9.098 .424 9.279 .205 9.371-.052 9.371-.309 9.371-.526 9.279-.706 9.098-.886 8.915-.975 8.695-.975 8.438V2.573C-.975 2.317-.886 2.099-.706 1.919-.526 1.74-.309 1.65-.052 1.65 .205 1.65 .424 1.74 .606 1.919 .789 2.099 .88 2.317 .88 2.573V4.053H2.556V2.557C2.556 1.844 2.306 1.239 1.804 .744 1.302 .248 .701 0 0 0" fill="#f36d21"/>
<path transform="matrix(1,0,0,-1,195.3779,257.58149)" d="M0 0C-.713 0-1.316 .248-1.812 .744-2.309 1.24-2.557 1.842-2.557 2.549V10.833H-.975V2.565C-.975 2.309-.884 2.091-.701 1.911-.519 1.731-.3 1.642-.043 1.642 .214 1.642 .432 1.731 .611 1.911 .791 2.091 .881 2.309 .881 2.565V10.833H2.564V2.549C2.564 1.83 2.314 1.226 1.812 .735 1.311 .245 .707 0 0 0" fill="#f36d21"/>
<path transform="matrix(1,0,0,-1,207.3936,257.4614)" d="M0 0H-4.403V10.713H-2.787V1.607H0Z" fill="#f36d21"/>
<path transform="matrix(1,0,0,-1,212.2461,248.3725)" d="M0 0H-1.719V1.624H3.326V0H1.616V-9.089H0Z" fill="#f36d21"/>
<path transform="matrix(1,0,0,-1,223.0303,257.58149)" d="M0 0C-.713 0-1.316 .248-1.812 .744-2.309 1.24-2.557 1.842-2.557 2.549V10.833H-.975V2.565C-.975 2.309-.884 2.091-.701 1.911-.519 1.731-.3 1.642-.043 1.642 .214 1.642 .432 1.731 .611 1.911 .791 2.091 .881 2.309 .881 2.565V10.833H2.564V2.549C2.564 1.83 2.314 1.226 1.812 .735 1.311 .245 .707 0 0 0" fill="#f36d21"/>
<path transform="matrix(1,0,0,-1,234.1562,249.3305)" d="M0 0C0 .621-.308 .933-.923 .933H-1.897V-2.496H-.923C-.666-2.496-.448-2.405-.269-2.223-.089-2.04 0-1.821 0-1.564ZM-.966 2.582C-.065 2.582 .596 2.334 1.018 1.839 1.389 1.405 1.573 .801 1.573 .026V-1.53C1.573-2.288 1.286-2.93 .71-3.454L1.907-8.131H.159L-.82-4.095H-.966-1.897V-8.131H-3.514V2.582Z" fill="#f36d21"/>
<path transform="matrix(1,0,0,-1,241.0605,257.4614)" d="M0 0V10.722H4.6V9.098H1.616V6.173H3.796V4.549H1.616V1.625H4.6V0Z" fill="#f36d21"/>
<path transform="matrix(1,0,0,-1,100.1579,136.3046)" d="M0 0H-4.515C-9.934 0-9.934-2.922-9.934-5.845V-15.196C-9.934-15.828-9.936-16.822-9.959-17.261H-7.4C-4.059-17.261-5.046-18.995-6.289-18.995H-13.207C-13.696-19.003-14.254-18.995-14.9-18.995-19.867-18.995-19.867-18.995-19.867-14.977V-5.845C-19.867-2.922-19.867 0-25.285 0H-29.801C-35.219 0-35.219-2.922-35.219-5.845V-46.026C-35.219-48.949-35.219-51.871-29.801-51.871H-25.285C-19.867-51.871-19.867-48.949-19.867-46.026V-35.068-33.68C-19.867-29.954-18.784-29.954-15.894-29.954H-14.9C-10.295-29.954-9.934-30.246-9.934-35.068V-46.026C-9.934-48.949-9.934-51.871-4.515-51.871H0C5.418-51.871 5.418-48.949 5.418-46.026V-5.845C5.418-2.922 5.418 0 0 0" fill="#f36d21"/>
<path transform="matrix(1,0,0,-1,256.8042,136.3046)" d="M0 0H-34.169C-36.426 0-38.414-.731-38.414-2.192V-8.402C-38.414-10.155-36.608-10.447-34.35-10.447-33.266-10.447-26.585-10.374-25.953-10.374-25.653-10.374-19.083-10.31-19.083-10.31-18.27-10.31-17.37-12.141-20.258-12.141L-23.616-12.32C-23.612-12.426-23.604-46.026-23.604-46.026-23.604-48.949-23.604-51.871-18.186-51.871H-13.672C-8.614-51.871-8.434-49.315-8.253-46.538V-12.639C-8.253-10.813-8.073-10.374-5.815-10.374-4.731-10.374-.451-10.447 .181-10.447 2.439-10.447 5.4-10.155 5.4-8.402V-2.192C5.4-.731 3.735 0 0 0" fill="#f36d21"/>
<path transform="matrix(1,0,0,-1,189.4705,177.58249)" d="M0 0C-.93 0-13.581-.148-13.581-.148-16.162-.148-15.248 1.568-14.437 1.613L-11.649 1.73V3.945 35.433C-11.649 38.355-11.649 41.278-17.068 41.278H-21.583C-27.001 41.278-27.001 38.355-27.001 35.433V-4.749C-27.001-7.671-27.001-10.593-21.583-10.593H-1.174C4.245-10.593 4.245-7.671 4.245-4.749V-3.799C4.245-1.607 3.793 0 0 0" fill="#f36d21"/>
<path transform="matrix(1,0,0,-1,142.1814,166.2582)" d="M0 0C0 0-7.113-.01-7.269 0-10.121 0-10.751 .006-10.751 1.169-10.751 1.461-10.751 1.826-10.66 2.264-9.758 9.498-9.126 18.264-7.229 18.264-5.242 18.264-4.881 9.424-3.798 2.264-3.777 2.149-3.774 2.066-3.762 1.964L-.418 1.954C2.202 1.954 1.898 0 0 0M6.046 24.109C5.143 27.762 3.336 29.954-.275 29.954H-14.182C-17.795 29.954-19.6 27.762-20.323 24.109-27.367-10.009-29.534-13.881-29.534-18.265-29.534-21.625-26.735-21.918-22.039-21.918H-17.795C-12.376-21.918-14.453-10.959-10.841-10.959H-3.617C-.004-10.959-2.804-21.918 2.795-21.918H7.581C12.728-21.918 15.527-21.625 15.527-18.265 15.527-13.881 12.187-5.845 6.046 24.109" fill="#f36d21"/>
<path transform="matrix(1,0,0,-1,213.4109,182.331)" d="M0 0C0-2.922 0-5.845-5.418-5.845H-9.934C-15.352-5.845-15.352-2.922-15.352 0V40.181C-15.352 43.104-15.352 46.026-9.934 46.026H-5.418C0 46.026 0 43.104 0 40.181Z" fill="#f36d21"/>
<path transform="matrix(1,0,0,-1,50.6866,160.14249)" d="M0 0C-2.703 1.899-5.479 3.507-8.329 4.968-9.3 5.559-10.658 6.104-11.437 6.908-11.446 6.913-11.453 6.91-11.463 6.918-11.532 6.974-12.579 7.898-12.285 9.081-11.82 11-7.836 14.612-7.836 14.612-6.437 15.724-5.634 15.054-5.634 15.054-4.866 14.442-5.209 14.245-5.535 13.836L-8.271 10.613C-7.917 10.32-6.713 9.622-6.322 9.435-3.546 7.974-1.899 8.84-.219 11.032 .804 12.347 1.973 13.662 2.995 15.05 4.822 17.68 4.676 18.63 1.899 20.456-5.114 24.767-12.566 25.644-20.091 22.21-30.684 17.388-30.246 1.827-22.794-3.069-19.068-5.479-15.05-7.379-11.251-9.644-9.644-10.52-8.329-11.616-8.913-13.589-9.644-15.854-11.47-15.999-13.516-15.708-15.488-15.415-17.022-14.466-18.63-13.516-22.429-11.251-22.502-11.324-25.351-14.612-26.009-15.269-26.447-15.927-27.032-16.584-30.466-20.383-30.319-22.356-25.863-24.84-21.479-27.251-16.73-28.566-11.689-28.566-10.521-28.566-9.279-28.639-8.109-28.493-1.242-27.908 3.872-23.671 5.553-17.241 7.306-10.155 5.918-4.018 0 0" fill="#f36d21"/>
<path transform="matrix(1,0,0,-1,213.1832,124.0983)" d="M0 0C0 3.959-3.209 7.168-7.168 7.168-11.126 7.168-14.335 3.959-14.335 0-14.335-3.959-11.126-7.168-7.168-7.168-3.209-7.168 0-3.959 0 0" fill="#f36d21"/>
<path transform="matrix(1,0,0,-1,95.1943,204.0727)" d="M0 0C.786 0 1.194-.377 1.194-1.006V-3.771C1.194-4.084 1.194-4.556 0-4.556-.628-4.556-.66-4.493-1.005-4.493-3.99-4.493-3.99-9.928-3.99-11.06-3.99-12.127-3.958-17.971-1.131-17.971-.723-17.971-.723-17.908 0-17.908 1.194-17.908 1.194-19.039 1.194-19.354V-21.458C1.194-22.244 .786-22.621 0-22.621-4.461-22.621-9.646-20.579-9.646-10.996-9.646-2.042-4.461 0 0 0" fill="#f36d21"/>
<path transform="matrix(1,0,0,-1,106.2236,216.6088)" d="M0 0C0-.502 .22-.502 1.226-.502 2.199-.502 2.451-.502 2.451-.031 2.451 .095 2.451 .252 2.419 .472 2.042 3.551 1.917 7.353 1.226 7.353 .565 7.353 .346 3.582 .032 .472 0 .283 0 .126 0 0M9.143-8.356C9.143-9.802 8.169-9.928 6.378-9.928H4.713C2.765-9.928 3.739-5.215 2.482-5.215H-.031C-1.288-5.215-.565-9.928-2.451-9.928H-3.927C-5.561-9.928-6.535-9.802-6.535-8.356-6.535-6.472-5.781-4.807-3.33 9.865-3.079 11.437-2.451 12.379-1.194 12.379H3.645C4.901 12.379 5.53 11.437 5.844 9.865 7.98-3.016 9.143-6.472 9.143-8.356" fill="#f36d21"/>
<path transform="matrix(1,0,0,-1,124.103,209.8227)" d="M0 0C0-.408 .032-1.131 .032-1.79 .032-2.419 0-2.984 0-3.361 0-4.398 .188-4.587 1.445-4.587 2.859-4.587 3.173-3.204 3.173-1.79 3.173-.377 2.859 1.352 1.445 1.352 .188 1.352 0 1.132 0 0M2.702 5.593C7.383 5.593 8.703 2.231 8.703-1.477 8.703-3.738 8.671-5.184 6.881-6.691 6.001-7.445 5.436-7.006 5.436-8.199 5.436-9.487 5.844-11.059 6.881-11.059 7.446-11.059 7.792-10.901 7.886-10.901 8.892-10.901 9.048-11.75 9.048-13.195 9.048-13.887 9.017-14.734 9.017-15.677 9.017-16.306 8.766-16.871 7.132-16.871 4.242-16.871 2.765-14.734 2.168-12.409 1.414-9.487 .471-8.985 .283-8.985 .032-8.985 .032-9.487 .032-9.739V-14.2C.032-15.457 .032-16.714-1.854-16.714H-4.053C-5.31-16.714-5.31-15.457-5.31-14.2V3.079C-5.31 4.336-5.31 5.593-3.424 5.593Z" fill="#f36d21"/>
<path transform="matrix(1,0,0,-1,141.8569,209.8227)" d="M0 0C0-.408 .032-1.131 .032-1.79 .032-2.419 0-2.984 0-3.361 0-4.398 .188-4.587 1.446-4.587 2.86-4.587 3.174-3.204 3.174-1.79 3.174-.377 2.86 1.352 1.446 1.352 .188 1.352 0 1.132 0 0M2.703 5.593C7.384 5.593 8.704 2.231 8.704-1.477 8.704-3.738 8.672-5.184 6.881-6.691 6.001-7.445 5.436-7.006 5.436-8.199 5.436-9.487 5.844-11.059 6.881-11.059 7.447-11.059 7.792-10.901 7.886-10.901 8.892-10.901 9.049-11.75 9.049-13.195 9.049-13.887 9.017-14.734 9.017-15.677 9.017-16.306 8.766-16.871 7.132-16.871 4.242-16.871 2.765-14.734 2.168-12.409 1.415-9.487 .471-8.985 .283-8.985 .032-8.985 .032-9.487 .032-9.739V-14.2C.032-15.457 .032-16.714-1.854-16.714H-4.053C-5.31-16.714-5.31-15.457-5.31-14.2V3.079C-5.31 4.336-5.31 5.593-3.424 5.593Z" fill="#f36d21"/>
<path transform="matrix(1,0,0,-1,159.5488,210.1997)" d="M0 0V-9.896C0-10.839 0-12.096 1.57-12.096 3.142-12.096 3.142-10.839 3.142-9.896V0C3.142 .786 3.142 1.729 1.57 1.729 0 1.729 0 .786 0 0M-5.373-2.639C-5.373 2.42-4.901 6.127 1.728 6.127 8.043 6.127 8.482 2.482 8.482-2.513 8.482-4.398 8.577-6.252 8.577-7.917 8.577-12.881 7.791-16.494 1.728-16.494-4.901-16.494-5.373-12.787-5.373-7.76-5.373-6.911-5.341-6.063-5.341-5.184-5.341-4.304-5.373-3.456-5.373-2.639" fill="#f36d21"/>
<path transform="matrix(1,0,0,-1,179.8467,224.2426)" d="M0 0C-.062-1.194-.126-2.294-1.885-2.294H-3.456C-5.341-2.294-5.341-1.037-5.341 .22V14.577C-5.341 15.363-5.498 15.552-6.158 15.552-6.378 15.552-6.691 15.52-7.069 15.52-7.854 15.52-8.482 15.646-8.482 16.399V19.07C-8.482 19.698-7.792 20.013-7.006 20.013H1.665C2.451 20.013 3.142 19.698 3.142 19.07V16.399C3.142 15.646 2.514 15.52 1.729 15.52 1.508 15.52 1.226 15.552 .849 15.552 .062 15.552 0 15.363 0 14.577Z" fill="#f36d21"/>
<path transform="matrix(1,0,0,-1,192.8877,204.0727)" d="M0 0C2.607 0 4.367-.472 4.367-1.351V-3.771C4.367-4.116 4.241-4.713 3.173-4.713H2.922C2.419-4.713 1.288-4.367 .377-4.367-.377-4.367-.974-4.618-.974-5.624-.974-6.598-.691-7.101 .534-8.105 4.272-11.185 5.026-13.384 5.026-15.929 5.026-17.374 4.995-18.693 4.179-19.919 3.142-21.49 1.508-22.087 .816-22.275-.031-22.495-1.226-22.621-2.199-22.621-4.524-22.621-6.786-22.181-6.786-20.925V-18.505C-6.786-18.128-6.473-17.751-5.624-17.751-4.807-17.751-4.116-18.223-2.325-18.223-1.445-18.223-.252-17.531-.252-16.558-.252-15.835-.283-15.301-2.199-13.415-5.121-10.557-6.504-9.237-6.504-6.661-6.504-.472-2.514 0 0 0" fill="#f36d21"/>
</g>
</g>
<g inkscape:groupmode="layer" inkscape:label="Isolation Mode">
<g clip-path="url(#clip_2)">
<path transform="matrix(1,0,0,-1,163.8497,56.3795)" d="M0 0 .266-.514C.585-1.098 1.122-1.761 1.459-1.986 1.795-2.211 2.66-2.848 2.663-2.851 2.667-2.854 2.974-3.136 3.34-3.472L3.722-3.696C6.157-5.122 8.075-7.213 10.095-9.146 12.223-11.182 14.449-13.116 16.772-14.926L17.465-15.466C18.318-15.953 18.807-16.646 18.55-17.008 18.294-17.369 16.609-16.392 14.807-14.836L13.172-13.418C10.15-10.798 7.144-8.039 3.701-5.936L2.676-5.31C1.497-4.716 .529-4.23 .526-4.23 .523-4.229 .426-4.232 .316-4.237 .206-4.242-.953-4.465-2.022-4.737L-2.917-4.826C-4.872-5.019-6.777-5.443-8.707-5.792-8.818-5.812-8.97-5.673-8.81-5.627L-7.107-5.136C-5.053-4.492-3.752-3.916-4.216-3.857L-4.636-3.798C-5.927-3.615-7.23-3.532-8.526-3.407-9.52-3.311-10.666-3.287-11.556-2.793-11.611-2.762-11.551-2.715-11.508-2.729L-10.385-3.102C-8.867-2.951-8.019-2.698-8.501-2.539L-8.938-2.392C-10.033-2.024-11.092-1.266-12.191-.984L-12.264-.966C-12.217-.916-12.142-.874-12.099-.87-12.056-.867-11.985-.882-11.941-.902L-11.985-.922C-11.971-.916-11.897-.882-11.625-.966-10.776-1.229-9.924-1.468-9.066-1.702L-7.84-2.036C-6.531-2.448-5.078-2.784-4.611-2.783L-4.186-2.793-3.86-2.8C-3.501-2.816-4.082-2.612-5.151-2.346L-6.053-1.988C-6.132-1.957-6.101-1.863-6.019-1.881-5.134-2.069-4.174-2.04-3.272-2.192L-2.327-2.351C-1.307-2.642-.713-2.732-1.009-2.55L-1.275-2.382-1.718-2.101C-2.21-1.758-3.011-1.38-3.499-1.26L-3.948-1.171C-5.817-.802-7.731-1.022-9.577-.692-9.642-.68-9.633-.614-9.568-.617-8.486-.668-7.358-.44-6.267-.425L-5.497-.415C-4.659-.529-4.025-.594-4.088-.558L-4.145-.529C-4.173-.514-4.142-.49-4.121-.497L-3.936-.555C-3.735-.629-3.548-.693-3.521-.697-3.494-.702-3.479-.677-3.548-.631-3.617-.586-3.813-.411-3.858-.387-3.903-.363-4.248-.228-4.524-.141-4.799-.054-5.545 .195-5.585 .161L-5.648 .146-7.08-.195C-8.805 .185-11.592 .085-13.274-.417L-14.665-.688C-14.82-.718-15.028-.508-14.216-.224-13.557 .006-12.86 .103-11.886 .588L-11.869 .596C-11.86 .606-11.947 .63-12.063 .649-12.178 .669-13.684 .78-15.155 .843L-16.509 .884C-16.619 .887-16.632 1.021-16.519 1.034L-15.863 1.108C-15.153 1.175-15.348 1.433-16.296 1.681L-17.137 1.962C-17.482 2.077-17.232 2.387-16.95 2.317L-15.201 1.883C-13.146 1.596-11.333 1.36-11.172 1.359L-11.024 1.355-10.559 1.344C-9.965 1.348-9.682 1.414-9.929 1.491-10.177 1.568-12.314 2.165-14.186 2.561L-15.867 3.007C-15.986 3.039-15.921 3.156-15.821 3.15L-14.488 3.071C-13.071 2.944-11.912 2.84-11.912 2.84-11.912 2.84-12.664 3.188-13.582 3.613L-14.18 4.338C-14.248 4.422-14.07 4.442-14.021 4.403-13.213 3.757-12.075 3.537-11.139 3.125L-10.776 2.965C-10.412 2.764-9.717 2.533-9.232 2.453L-8.786 2.364-8.362 2.278C-7.879 2.183-7.872 2.358-8.346 2.667L-8.784 2.944-9.251 3.239C-9.764 3.565-10.429 3.903-10.727 3.989-11.026 4.076-12.428 4.399-13.186 4.488L-13.509 4.557-13.561 4.567C-13.618 4.578-15.61 4.338-17.989 4.035L-20.129 3.896C-20.226 3.89-20.332 4.03-20.198 4.054L-18.742 4.315C-17.156 4.669-16.993 5.101-18.38 5.275L-19.634 5.458C-19.714 5.47-19.729 5.558-19.641 5.57L-18.732 5.696C-17.554 5.896-17.562 6.384-18.752 6.779L-19.859 7.028C-19.902 7.037-19.898 7.099-19.854 7.1L-18.061 7.144C-15.94 6.644-14.181 6.235-14.153 6.236-14.125 6.236-14.203 6.323-14.385 6.427-14.568 6.531-15.087 6.802-15.129 6.808L-15.154 6.822-15.197 6.846C-15.244 6.871-15.301 6.887-15.322 6.882H-15.345C-16.602 6.852-17.789 7.27-19.006 7.528-20.184 7.778-21.381 7.937-22.528 8.319-22.578 8.335-22.602 8.411-22.534 8.423L-21.628 8.583C-20.582 8.645-19.941 8.789-20.203 8.904L-20.437 9.006C-21.599 9.511-23.222 10.042-24.162 10.898-24.217 10.948-24.119 10.978-24.08 10.958-23.502 10.663-22.782 10.619-22.154 10.473L-21.54 10.331C-20.876 10.066-20.876 10.339-21.539 10.938L-22.144 11.49C-22.651 11.952-23.219 12.368-23.522 12.989-23.534 13.014-23.492 13.022-23.478 13.007-22.914 12.377-21.992 12.02-21.256 11.641-20.304 11.152-19.388 10.585-18.464 10.044L-17.976 9.759C-17.464 9.43-17.641 9.83-18.37 10.648L-18.927 11.512C-18.959 11.561-18.868 11.573-18.841 11.547L-17.798 10.578C-16.448 9.569-15.721 9.652-16.183 10.764L-16.257 11.734C-16.267 11.857-16.072 11.844-16.036 11.751-15.656 10.783-14.973 9.819-14.35 8.996L-13.768 8.229C-13.127 7.27-12.378 6.377-12.103 6.245-11.828 6.114-11.304 6.116-11.543 6.555L-11.741 6.931C-12.322 8.035-12.977 9.336-13.053 10.599-13.057 10.666-12.933 10.643-12.915 10.596L-12.421 9.266C-11.329 7.98-10.495 7.135-10.568 7.387L-10.626 7.623C-10.785 8.275-10.676 9.107-10.946 9.724-10.948 9.728-10.944 9.73-10.945 9.734L-10.947 9.739C-10.945 9.744-10.943 9.754-10.941 9.76L-10.936 9.765C-10.933 9.768-10.929 9.769-10.925 9.771L-10.919 9.774C-10.911 9.777-10.903 9.779-10.9 9.778-10.897 9.778-10.885 9.777-10.88 9.777-10.875 9.776-10.407 9.033-9.852 8.133L-9.51 7.421-8.963 6.285C-8.358 5.049-7.822 4.016-7.772 3.989L-7.727 3.964-7.058 3.6C-6.338 3.186-6.597 4.384-7.632 6.262L-8.63 7.903C-8.64 7.919-8.61 7.923-8.601 7.914L-8.076 7.391C-7.506 6.756-7.038 6.237-7.036 6.238-7.034 6.24-7.34 7.056-7.732 8.043L-8.102 8.94C-8.129 9.004-7.999 9.005-7.972 8.963L-7.175 7.727C-6.449 6.218-5.722 4.836-5.559 4.653-5.396 4.471-5.091 4.326-5.187 4.669-5.283 5.013-5.345 5.812-5.241 5.689-5.138 5.567-4.63 4.782-4.321 4.233-4.012 3.684-3.522 2.006-3.402 1.803-3.282 1.599-2.968 1.011-2.907 .966L-2.852 .924-2.303 .501C-1.674 .076-1.501 .6-1.92 1.664L-2.324 2.534-2.631 3.194C-2.98 3.971-3.303 4.62-3.35 4.636L-3.378 4.659C-4.84 5.814-5.856 7.387-7.088 8.751-7.116 8.781-7.066 8.799-7.042 8.785-6.33 8.358-5.739 7.723-5.116 7.179L-4.795 6.899C-4.424 6.582-4.413 6.832-4.77 7.454L-5.144 7.95C-5.171 7.987-5.093 8.002-5.071 7.979L-4.058 6.977C-3.161 5.551-2.625 5.293-2.866 6.404L-3.201 7.404C-3.209 7.428-3.161 7.429-3.152 7.412L-2.24 5.802C-1.592 3.752-.998 1.952-.92 1.802-.842 1.651-.611 1.315-.577 1.39L-.548 1.458C-.337 1.955-.277 2.507-.198 3.037-.13 3.498 .039 4.085-.14 4.531-.153 4.564-.088 4.562-.074 4.542 .384 3.879 .289 2.698 .327 1.916 .347 1.51 .165 1.063 .051 .68L.001 .514C-.049 .329-.063 .124-.03 .059Z" fill="#007e44"/>
<path transform="matrix(1,0,0,-1,172.556,63.293397)" d="M0 0C-3.033 2.429-6.124 4.923-8.448 8.049-9.346 9.255-10.256 10.718-11.824 11.104-12.664 11.311-13.322 10.864-14.11 10.898-14.881 10.93-16.039 10.83-16.714 11.271-16.734 11.284-16.739 11.347-16.706 11.335-16.259 11.165-15.689 11.332-15.239 11.401-14.721 11.48-14.18 11.542-13.702 11.751L-13.636 11.779C-13.564 11.813-13.63 11.9-13.782 11.974-13.934 12.047-16.01 12.75-18.059 13.366L-19.688 14.241C-19.705 14.25-19.706 14.297-19.681 14.289L-18.681 13.97C-17.577 13.743-17.856 14.262-19.303 15.123L-20.339 16.101C-20.362 16.123-20.351 16.198-20.313 16.171L-19.808 15.812C-19.177 15.469-18.932 15.481-19.262 15.839L-19.553 16.149C-20.119 16.751-20.772 17.32-21.227 18.009-21.242 18.032-21.227 18.08-21.195 18.054-19.794 16.867-18.197 15.89-16.988 14.478L-16.965 14.451C-16.947 14.405-16.293 14.095-15.511 13.761L-14.846 13.468-13.971 13.081C-12.903 12.681-12.396 12.852-12.844 13.461L-13.287 13.991-13.294 13.998C-13.3 14.006-13.814 14.121-14.437 14.254L-15.027 14.419C-15.486 14.548-15.936 14.726-16.396 14.856-16.64 14.925-17.177 15.247-17.436 15.163-17.478 15.149-17.536 15.193-17.485 15.225-17.128 15.442-16.321 15.181-15.926 15.104L-15.882 15.095C-15.831 15.086-16.065 15.211-16.402 15.373-16.74 15.535-17.731 16.012-17.86 16.106-17.99 16.2-18.037 16.406-17.689 16.34-17.341 16.274-16.605 16.189-16.779 16.336-16.952 16.483-18.672 17.45-20.191 18.145L-21.447 18.911C-21.49 18.936-21.495 19.063-21.431 19.038L-20.539 18.687C-19.558 18.316-18.75 18.016-18.744 18.02-18.737 18.024-19.251 18.473-19.904 19.022L-20.445 19.528C-20.454 19.537-20.452 19.566-20.435 19.556L-18.772 18.598C-16.874 17.604-15.683 17.361-16.125 18.057L-16.516 18.704-16.524 18.718C-16.534 18.734-17.134 18.889-17.858 19.062L-18.497 19.225C-18.853 19.316-19.213 19.396-19.569 19.489-19.948 19.587-20.334 19.81-20.732 19.804-20.812 19.803-20.873 19.896-20.773 19.92L-20.12 20.076C-19.32 19.911-19.064 19.97-19.552 20.207L-20.003 20.414-20.721 20.742C-21.634 21.275-22.383 21.714-22.385 21.719-22.387 21.724-22.39 21.74-22.391 21.743-22.392 21.746-22.391 21.756-22.39 21.76-22.389 21.763-22.385 21.774-22.384 21.776-22.383 21.778-22.378 21.785-22.375 21.787-22.372 21.788-22.36 21.792-22.355 21.794L-22.349 21.793C-22.346 21.792-22.344 21.795-22.34 21.793-21.72 21.535-20.906 21.646-20.256 21.495L-20.021 21.441C-19.77 21.372-20.642 22.176-21.96 23.228L-23.293 23.699C-23.34 23.716-23.369 23.836-23.303 23.833L-22.43 23.787C-21.467 23.401-21.443 23.643-22.376 24.326L-23.26 24.824C-23.292 24.842-23.258 24.871-23.234 24.868-22.591 24.786-21.882 24.233-21.322 23.917L-20.328 23.357C-19.319 22.612-18.486 21.998-18.477 21.993-18.467 21.989-18.563 22.191-18.71 22.455-18.857 22.719-19.431 23.528-19.675 23.657-19.919 23.785-21.016 24.395-21.6 24.651L-22.121 24.87C-22.72 25.121-23.464 25.354-23.976 25.758-24.007 25.782-23.958 25.812-23.935 25.807L-23.386 25.707C-22.785 25.568-22.97 25.894-23.798 26.43L-24.581 26.722C-24.675 26.757-24.697 26.946-24.575 26.937L-24.263 26.915C-23.908 26.847-23.667 26.829-23.727 26.875L-23.783 26.915C-24.582 27.494-25.416 28.035-26.192 28.643-26.22 28.664-26.17 28.688-26.151 28.68L-24.694 28.151C-23.04 27.031-21.672 26.108-21.653 26.099-21.635 26.091-22.453 27.136-23.512 28.44L-24.516 29.446C-24.542 29.472-24.535 29.561-24.486 29.53L-23.608 28.995C-22.768 28.292-22.366 28.123-22.714 28.618L-23.019 29.09-23.121 29.248C-23.235 29.422-23.804 29.956-24.385 30.435L-24.896 30.9C-25.49 31.442-25.987 32.114-26.631 32.596-26.661 32.619-26.603 32.642-26.582 32.631L-25.775 32.214C-24.932 31.538-24.39 31.226-24.571 31.52L-24.725 31.791C-25.134 32.502-25.53 33.395-26.176 33.939-26.192 33.953-26.187 33.993-26.161 33.982-25.536 33.692-25.098 33.143-24.619 32.653L-24.047 32.069C-23.426 31.429-23.157 31.432-23.449 32.074L-23.619 32.669C-23.793 33.278-23.871 33.976-24.189 34.536-24.211 34.574-24.186 34.669-24.134 34.616-23.247 33.709-22.645 32.137-22.092 31.011L-21.98 30.785C-21.855 30.532-21.744 31.155-21.733 32.17L-21.62 33.051C-21.611 33.118-21.536 33.095-21.516 33.045L-21.276 32.426C-21.094 31.724-20.77 31.666-20.556 32.295L-20.428 32.881C-20.421 32.913-20.345 32.92-20.343 32.882L-20.318 31.949C-20.51 30.887-20.638 29.903-20.603 29.761L-20.568 29.632C-20.255 28.452-19.787 27.302-19.755 26.082V26.06C-19.759 26.039-19.74 25.984-19.713 25.938L-19.687 25.897-19.672 25.873C-19.664 25.832-19.57 25.653-19.462 25.474-19.355 25.296-19.058 24.854-19.059 24.881-19.059 24.908-19.55 26.661-20.145 28.716L-20.188 30.457C-20.189 30.503-20.131 30.513-20.118 30.466L-19.82 29.391C-19.372 28.238-18.891 28.232-18.751 29.377L-18.672 30.261C-18.665 30.346-18.577 30.332-18.561 30.254L-18.32 29.038C-18.082 27.693-17.665 27.853-17.393 29.396L-17.206 30.811C-17.189 30.941-17.046 30.839-17.047 30.745L-17.065 29.616C-17.127 28.361-16.941 28.032-16.651 28.884L-16.453 29.676C-16.442 29.721-16.349 29.72-16.352 29.667-16.397 28.864-16.505 28.079-16.664 27.295-16.803 26.603-16.893 25.92-17.307 25.339L-17.314 25.329C-17.325 25.32-17.346 25.185-17.36 25.029-17.373 24.874-17.404 24.419-17.391 24.364L-17.377 24.314-17.295 24.001C-17.17 23.265-16.98 22.429-16.872 22.142-16.764 21.854-16.221 20.685-15.875 20.188L-15.562 19.737-15.268 19.313C-14.941 18.855-14.769 18.864-14.887 19.332L-14.991 19.743-15.101 20.175C-15.203 20.645-15.463 21.318-15.679 21.671L-15.854 22.022C-16.305 22.928-16.576 24.032-17.251 24.811-17.293 24.859-17.281 25.033-17.195 24.966-16.5 24.427-16.132 23.665-15.701 22.925L-15.671 22.874C-15.638 22.819-15.769 23.899-15.963 25.274L-16.105 26.567C-16.116 26.664-16.003 26.728-15.966 26.612L-15.446 24.984C-14.966 23.169-14.484 21.5-14.375 21.274-14.266 21.049-14.048 20.894-14.073 21.471L-14.107 21.921-14.118 22.065C-14.126 22.221-14.236 22.755-14.361 23.25-14.486 23.746-14.953 25.384-15.188 25.765L-15.4 26.095C-15.727 26.607-15.976 27.167-16.302 27.674-16.316 27.695-16.271 27.708-16.258 27.693-15.89 27.286-15.584 26.82-15.226 26.403L-15.14 26.302C-15.039 26.181-15.059 26.565-15.185 27.155L-15.339 27.668C-15.422 27.942-15.129 28.186-14.999 27.852L-14.682 27.038C-14.392 26.119-14.128 25.931-14.097 26.62L-14.055 27.258C-14.049 27.369-13.916 27.356-13.907 27.249L-13.832 26.307C-13.746 25.282-13.576 24.706-13.455 25.028L-13.386 25.337C-13.209 26.136-13.206 26.95-13.052 27.748-13.042 27.801-12.93 27.799-12.934 27.738L-13.027 26.338C-13.329 24.77-13.574 23.465-13.571 23.438-13.568 23.411-13.537 23.248-13.509 23.137-13.481 23.026-13.416 22.735-13.415 22.739L-13.414 22.743-13.398 22.791C-13.378 22.845-13.395 22.931-13.436 22.984L-13.379 23.048-13.334 23.098C-13.289 23.156-12.984 23.903-12.657 24.757L-12.404 25.547C-12.365 25.666-12.259 25.555-12.272 25.469L-12.313 25.191C-12.362 24.869-12.219 25.136-11.995 25.785L-11.925 26.395C-11.918 26.456-11.773 26.464-11.773 26.397L-11.764 25.481C-12.248 24.248-12.703 22.98-12.774 22.663-12.846 22.347-12.96 20.924-12.807 20.167-12.655 19.411-12.067 18.362-11.996 19.507L-12.095 20.521C-12.101 20.583-12.037 20.592-12.022 20.53L-11.634 18.857C-11.48 16.97-11.117 14.942-10.828 14.349-10.538 13.756-9.717 12.13-9.66 12.048-9.604 11.965-9.714 12.547-10.037 13.523-10.36 14.499-10.493 16.726-10.306 16.206-10.119 15.685-9.63 15.168-9.642 16.102L-9.914 16.898C-10.184 17.686-10.503 18.455-10.755 19.253L-11.078 20.271C-11.541 21.829-11.593 22.445-11.193 21.639-10.793 20.833-9.83 18.848-9.824 19.042-9.819 19.236-10.185 20.794-10.636 22.078L-11.028 23.271C-11.041 23.309-10.964 23.314-10.946 23.288L-10.561 22.718C-10.207 22.003-9.94 21.576-9.968 21.77-9.995 21.963-10.035 22.39-9.957 22.286-9.88 22.182-9.719 21.983-9.721 22.125L-9.727 22.255C-9.76 22.937-9.974 23.625-9.993 24.297-9.993 24.311-9.965 24.317-9.96 24.303L-9.411 23.043C-9.383 21.56-9.356 20.307-9.35 20.258-9.345 20.209-9.061 20.995-8.731 22.114L-8.843 23.203C-8.845 23.228-8.799 23.231-8.792 23.208L-8.401 21.96C-8.863 20.419-9.231 19.079-9.22 18.981L-9.208 18.898-9.005 17.454C-8.727 15.869-8.403 15.001-8.284 15.525-8.164 16.049-7.834 17.888-7.848 18.45L-7.88 18.908C-7.919 19.473-8.001 20.112-7.903 20.666-7.894 20.714-7.792 20.729-7.772 20.68L-7.601 20.256C-7.432 19.716-7.265 19.365-7.229 19.476-7.193 19.587-7.088 19.67-7.082 19.419-7.076 19.167-6.834 18.974-6.515 19.546L-6.343 20.076C-6.336 20.097-6.289 20.098-6.292 20.071L-6.427 18.977C-6.888 17.739-7.537 15.05-7.869 13.001L-7.668 11.092C-7.437 8.906-5.874 7.211-4.314 5.73-2.554 4.057-.9 2.264 .906 .641L1.267 .317C1.666-.039 1.861-.516 1.701-.742 1.541-.968 1.223-.999 .995-.812L.789-.638C.526-.425 .264-.211 0 0" fill="#007e44"/>
<path transform="matrix(1,0,0,-1,157.2827,45.27829)" d="M0 0C-2.679 3.544-5.25 7.44-6.925 11.527-6.942 11.568-6.863 11.588-6.846 11.552-4.988 7.702-2.424 4.016 .026 .497 2.75-3.414 5.805-7.155 8.964-10.738 9.004-10.783 8.915-10.817 8.882-10.784 5.631-7.485 2.783-3.68 0 0" fill="#007e44"/>
<path transform="matrix(1,0,0,-1,220.8649,99.9836)" d="M0 0C-1.628 1.288-2.665 2.044-4.304 3.318-4.553 2.809-4.833 2.322-5.185 1.877-5.442 1.552-5.802 .97-6.29 1.242-6.751 1.499-6.342 2.189-6.161 2.495-6.053 2.676-5.166 3.891-5.276 3.99-8.032 6.461-11.044 9.185-13.768 11.691-16.209 13.936-18.869 15.969-20.796 18.729-20.921 18.629-21.062 18.543-21.169 18.427-21.462 18.11-21.795 17.646-22.225 17.902-22.719 18.195-22.303 18.66-22.158 19.036-22.083 19.231-21.937 19.407-22.224 19.705-22.728 19.2-23.236 18.682-23.755 18.176-23.989 17.948-24.26 17.721-24.58 18.025-24.819 18.252-24.755 18.581-24.547 18.741-22.348 20.435-23.854 21.699-25.007 23.033-27.423 25.828-29.819 28.64-32.23 31.44-33.226 32.597-33.727 32.59-34.54 31.29-34.974 30.597-35.458 29.971-36.058 29.431-36.325 29.189-36.657 28.812-37.008 29.186-37.346 29.546-36.981 29.916-36.728 30.151-35.97 30.856-35.451 31.732-34.883 32.576-34.619 32.968-34.128 33.467-34.617 33.835-35.242 34.305-35.556 33.516-35.812 33.158-36.687 31.938-37.442 30.964-38.573 29.779-38.844 29.495-39.284 28.921-39.731 29.416-40.091 29.814-39.466 30.32-39.249 30.591-38.345 31.716-37.551 32.575-36.654 33.706-36.08 34.43-35.43 35.158-35.897 35.669-36.43 36.209-37.039 36.624-37.441 37-38.933 38.398-40.492 39.718-42.249 40.759-43.632 41.579-45.247 42.275-46.888 41.973-47.703 41.823-48.389 41.198-49.041 40.725-50.977 39.321-52.588 37.866-53.358 35.532-54.049 33.438-53.943 31.095-52.901 29.134-50.852 25.274-48.244 22.051-44.958 19.197-44.729 19.549-44.186 19.997-43.711 20.266-43.377 20.456-42.951 20.821-42.58 20.41-42.26 20.056-43.033 19.646-43.376 19.337-43.85 18.912-43.976 18.862-44.267 18.548-44.086 18.356-43.922 18.146-43.724 17.973-40.996 15.585-37.956 13.62-35.042 11.529-34.349 12.02-33.93 12.314-33.237 12.805-32.995 12.977-32.774 13.347-32.442 12.999-32.179 12.725-32.254 12.351-32.506 12.137-34.082 10.795-33.942 10.695-32.706 9.948-31.058 8.952-17.556 1.182-17.419 1.318-16.899 1.891-16.391 2.475-15.854 3.032-15.599 3.297-15.258 3.575-14.895 3.284-14.456 2.932-14.68 2.502-14.963 2.179-15.378 1.708-15.848 1.287-16.295 .845-16.138 .663-8.791-1.656-6.863-2.004-4.827-2.37-2.767-2.805-.669-2.495-.011-2.397 .577-2.16 .787-1.427 .998-.691 .448-.355 0 0" fill="#f36d21"/>
</g>
</g>
</svg>
